# xmcd CD database file
#
# Track frame offsets:
#	150
#	7900
#	21896
#	35252
#	47614
#	62682
#	74763
#	88714
#	100264
#	112224
#	122357
#	132344
#	154327
#	163922
#	172688
#	185654
#	195776
#	212172
#
# Disc length: 2962 seconds
#
# Revision: 2
# Processed by: cddbd v1.5.2PL0 Copyright (c) Steve Scherf et al.
# Submitted via: CDex 1.51
#
DISCID=f20b9012
DTITLE=Jan Jankeje's Party and Swing Band - Jan Jankeje's Party and Swing Band
DYEAR=1900
DGENRE=Jazz
TTITLE0=Petite Fleur
TTITLE1=By By Blues
TTITLE2=Honky Tonky Blues
TTITLE3=Wild Cat Blues
TTITLE4=What a Wonderful World
TTITLE5=When the Saints
TTITLE6=Bluebarry Hill
TTITLE7=Boxer Boogie
TTITLE8=Sentimental Journey
TTITLE9=Creole Jazz
TTITLE10=Ain't She Sweet
TTITLE11=St. Louis Blues
TTITLE12=When You're Smiling
TTITLE13=Strange on the Shore
TTITLE14=Schwarze Augen
TTITLE15=Du hast Glück bei den Frau'n bel ami
TTITLE16=I Can't Give You Anything But Love
TTITLE17=Happy Birthday
EXTD=
EXTT0=
EXTT1=
EXTT2=
EXTT3=
EXTT4=
EXTT5=
EXTT6=
EXTT7=
EXTT8=
EXTT9=
EXTT10=
EXTT11=
EXTT12=
EXTT13=
EXTT14=
EXTT15=
EXTT16=
EXTT17=
PLAYORDER=
